<?xml version="1.0" standalone="no"?>
<!DOCTYPE svg PUBLIC "-//W3C//DTD SVG 20010904//EN"
 "http://www.w3.org/TR/2001/REC-SVG-20010904/DTD/svg10.dtd">
<svg version="1.0" xmlns="http://www.w3.org/2000/svg"
 width="634.000000pt" height="306.000000pt" viewBox="0 0 634.000000 306.000000"
 preserveAspectRatio="xMidYMid meet">

<g transform="translate(0.000000,306.000000) scale(0.100000,-0.100000)"
fill="#ffffff" stroke="none">
<path d="M5481 3009 c-126 -22 -243 -91 -348 -204 -87 -93 -128 -161 -171
-288 -28 -82 -36 -121 -40 -208 -6 -137 14 -232 76 -359 37 -76 62 -110 122
-171 130 -131 261 -177 469 -165 140 7 269 30 289 49 9 10 20 74 33 208 22
234 22 240 6 263 -13 17 -18 17 -103 -12 -196 -68 -309 -49 -365 60 -71 140 3
307 156 349 56 16 135 -2 206 -46 57 -35 83 -42 93 -27 3 5 10 109 16 231 9
195 9 226 -4 246 -33 51 -305 97 -435 74z m334 -41 c88 -23 90 -24 90 -53 0
-88 -18 -455 -22 -455 -3 0 -22 14 -43 30 -62 49 -118 70 -189 70 -106 0 -186
-53 -232 -154 -22 -49 -25 -152 -5 -200 19 -46 75 -107 113 -122 65 -28 214
-12 316 33 31 14 60 24 62 21 10 -9 -36 -453 -47 -459 -24 -15 -224 -39 -325
-39 -202 0 -327 56 -444 197 -52 63 -113 182 -135 263 -25 93 -23 260 5 365
66 249 256 459 472 520 79 22 267 14 384 -17z"/>
<path d="M4715 2944 c-155 -17 -164 -20 -175 -48 -4 -12 -14 -85 -22 -162
l-13 -139 -5 142 c-4 111 -8 146 -21 158 -14 14 -47 12 -364 -19 -191 -20
-350 -38 -353 -41 -3 -3 3 -5 13 -5 23 0 605 57 657 65 29 4 38 1 42 -12 6
-19 -9 -391 -16 -398 -2 -2 -46 -9 -98 -16 -52 -6 -96 -13 -97 -14 -2 -1 -21
-201 -43 -446 -22 -244 -41 -451 -43 -459 -2 -12 -42 -20 -187 -36 -102 -12
-187 -20 -189 -18 -3 2 14 208 37 457 24 248 42 458 42 466 0 11 -18 12 -95 6
-88 -6 -95 -6 -95 12 0 10 14 101 30 203 28 182 32 237 9 146 -13 -53 -25 -59
-34 -16 -8 39 -26 43 -170 43 -104 0 -130 -3 -193 -26 -104 -36 -174 -81 -265
-166 -77 -74 -158 -184 -213 -291 l-28 -55 -8 65 c-21 162 -129 280 -256 280
-38 0 -582 -167 -600 -184 -7 -7 -33 -177 -67 -445 -30 -238 -59 -447 -63
-465 -12 -43 -14 -33 -57 224 -86 518 -106 600 -143 600 -45 0 -358 -82 -374
-98 -9 -9 -64 -118 -122 -241 -58 -123 -152 -303 -210 -400 -116 -196 -236
-423 -236 -445 0 -34 37 -39 204 -27 222 17 218 15 251 106 15 41 34 80 41 86
8 7 58 16 110 22 77 8 98 7 104 -3 5 -8 11 -44 15 -82 8 -78 25 -97 85 -99 19
-1 46 -4 58 -8 21 -5 14 -11 -50 -41 -111 -53 -230 -175 -291 -298 -26 -51
-52 -111 -58 -133 -7 -21 -16 -39 -21 -39 -4 0 -8 92 -8 204 0 113 -4 216 -10
230 -9 24 -15 26 -62 25 -29 0 -77 -4 -107 -8 -66 -9 -74 -19 -168 -184 -36
-65 -71 -121 -76 -124 -14 -9 -24 13 -63 137 -20 63 -41 121 -48 129 -8 11
-32 12 -112 8 -56 -4 -109 -9 -118 -13 -11 -4 -63 -148 -166 -463 -83 -251
-150 -463 -150 -472 0 -28 47 -39 170 -39 102 0 123 3 138 18 10 10 31 63 46
118 35 123 53 167 65 160 5 -3 19 -38 31 -78 45 -147 59 -178 85 -178 19 0 39
23 101 112 104 152 108 157 118 158 4 0 5 -60 1 -134 -9 -171 -15 -166 170
-166 89 0 135 4 143 12 8 8 12 57 12 155 0 79 4 143 9 143 4 0 16 -20 26 -45
48 -127 152 -228 273 -265 109 -34 217 -21 332 41 101 53 236 207 279 316 23
58 34 39 27 -44 -3 -43 -9 -121 -13 -174 l-6 -97 27 -17 c24 -16 43 -17 169
-11 92 4 146 11 154 19 8 7 21 93 34 211 11 109 24 208 28 220 8 19 9 19 23
-9 9 -17 48 -109 87 -205 95 -231 86 -223 255 -215 159 7 173 10 186 35 6 10
19 124 30 252 11 128 27 260 34 293 8 33 25 110 40 170 25 110 56 332 56 411
0 75 -6 77 -179 72 -89 -3 -156 -9 -163 -16 -6 -6 -17 -77 -24 -159 -15 -161
-38 -301 -59 -348 -15 -35 -9 -48 -74 152 -52 156 -107 290 -116 281 -3 -3 7
-39 23 -79 33 -82 126 -366 137 -416 3 -18 10 -33 14 -33 9 0 35 89 56 192 8
37 22 144 31 236 8 92 16 168 17 168 1 1 73 5 161 9 l159 7 -7 -84 c-14 -168
-37 -307 -71 -442 -33 -132 -51 -271 -71 -553 -4 -50 -10 -96 -14 -103 -4 -7
-63 -13 -166 -17 l-159 -6 -104 257 c-58 141 -108 253 -112 249 -7 -9 -31
-191 -50 -390 l-12 -121 -30 -6 c-16 -3 -90 -6 -164 -6 l-135 0 6 88 c15 185
71 607 124 922 l7 45 145 36 c206 50 203 49 198 55 -9 8 -330 -73 -344 -88 -9
-9 -26 -90 -45 -213 -17 -110 -34 -206 -38 -213 -5 -9 -16 11 -31 58 -44 136
-144 254 -263 310 -34 17 -68 30 -74 30 -7 0 -13 4 -13 9 0 4 28 12 63 15 94
11 223 34 312 57 114 28 119 35 134 200 7 73 14 136 17 138 7 8 20 -15 50 -89
15 -36 35 -84 45 -108 25 -58 46 -64 155 -42 49 10 141 26 204 35 124 18 145
29 130 70 -5 12 -58 101 -119 196 -61 96 -111 183 -111 195 0 11 14 33 31 50
17 16 47 56 67 89 l36 60 12 -105 c20 -177 69 -285 179 -395 72 -72 146 -116
226 -134 149 -35 452 23 470 89 10 36 9 461 -1 485 -5 12 -9 -51 -11 -165 -1
-102 -4 -216 -8 -255 l-6 -70 -80 -27 c-98 -33 -246 -49 -333 -37 -97 14 -166
52 -252 138 -191 192 -222 462 -86 755 74 160 209 322 330 395 114 68 169 84
308 89 70 2 139 1 154 -2 l27 -7 -7 -97 c-7 -99 -33 -307 -41 -330 -3 -9 -16
-5 -45 14 -167 111 -393 -67 -393 -308 0 -77 30 -149 75 -182 37 -26 105 -25
183 3 60 21 170 89 161 99 -3 3 -21 -7 -41 -22 -54 -41 -144 -78 -206 -83 -51
-5 -58 -3 -91 26 -114 100 -47 369 114 452 50 26 132 25 182 -2 51 -27 78 -22
88 16 l7 30 88 -3 c48 -2 92 -8 98 -13 6 -6 -5 -160 -28 -417 -45 -485 -45
-479 -14 -493 32 -14 352 22 373 42 10 11 25 134 54 454 32 339 44 443 56 451
8 6 46 15 85 18 49 5 76 13 90 27 19 19 19 18 19 -40 0 -33 -9 -142 -20 -243
-20 -189 -50 -542 -50 -590 0 -18 8 -33 23 -43 21 -14 38 -13 176 8 99 15 157
29 168 39 11 12 21 75 39 249 14 129 38 340 54 469 51 414 66 585 52 614 -14
31 -27 31 -217 10z m205 -23 c0 -41 -35 -361 -70 -646 -16 -132 -39 -332 -50
-445 -11 -112 -23 -207 -28 -211 -10 -9 -332 -57 -337 -50 -6 11 24 374 55
671 16 157 36 370 45 474 8 104 17 191 20 194 4 5 283 38 343 41 18 1 22 -4
22 -28z m-2299 -322 c57 -18 105 -63 139 -133 26 -53 31 -74 31 -137 0 -148
-65 -319 -160 -421 l-53 -58 39 -63 c169 -265 214 -338 219 -351 7 -17 -2 -20
-126 -36 -47 -6 -136 -21 -197 -33 -71 -13 -116 -18 -121 -12 -5 6 -37 81 -72
168 -34 87 -65 155 -69 152 -3 -4 -13 -88 -22 -187 -10 -99 -21 -184 -26 -189
-44 -44 -622 -126 -735 -105 l-35 6 -6 91 c-3 50 -8 93 -10 96 -3 2 -61 -1
-129 -8 l-125 -12 -33 -89 c-18 -50 -38 -91 -44 -94 -20 -6 -381 -32 -386 -27
-8 8 127 264 234 442 55 91 148 269 207 394 59 126 114 237 121 247 9 13 65
30 196 60 101 23 185 40 187 38 7 -6 70 -357 125 -692 27 -164 51 -301 54
-303 2 -2 9 42 16 99 7 57 38 303 69 546 l56 444 143 44 c78 24 206 64 285 89
155 48 171 51 228 34z m-784 -1489 c152 -75 265 -277 250 -446 -8 -79 -61
-221 -111 -298 -63 -94 -159 -182 -245 -224 -73 -36 -80 -37 -181 -37 -99 0
-110 2 -171 32 -78 39 -136 97 -177 180 -78 154 -67 319 34 514 133 258 395
379 601 279z m-729 -502 l-3 -493 -144 2 c-79 2 -146 5 -148 7 -4 4 2 84 23
306 l6 65 -80 -108 c-44 -59 -102 -141 -128 -182 -27 -41 -52 -75 -56 -75 -7
0 -75 206 -99 300 -11 44 -11 44 -24 20 -8 -14 -35 -96 -61 -182 l-48 -158
-143 0 c-79 0 -143 3 -143 6 0 16 301 924 308 927 4 3 55 8 114 12 l106 7 7
-34 c21 -96 90 -288 105 -288 3 0 17 23 31 52 21 46 153 275 165 288 4 4 110
14 187 18 l27 2 -2 -492z"/>
<path d="M2314 2230 c-18 -7 -22 -22 -32 -111 -6 -57 -9 -105 -7 -108 3 -2 25
4 50 14 54 20 91 68 101 131 9 59 -7 84 -54 83 -20 0 -46 -4 -58 -9z m96 -61
c0 -62 -49 -129 -93 -129 -17 0 -18 6 -12 68 9 80 18 99 47 104 37 6 58 -9 58
-43z"/>
<path d="M1404 1910 c-9 -20 -62 -149 -102 -249 -4 -11 5 -12 49 -6 30 4 58
10 62 14 4 4 6 66 5 137 -3 106 -5 125 -14 104z m5 -187 c1 -20 -22 -53 -37
-53 -4 0 -13 4 -20 9 -10 6 -7 20 14 67 27 59 27 59 34 29 4 -16 8 -40 9 -52z"/>
<path d="M1584 801 c-52 -24 -100 -82 -121 -149 -14 -45 -15 -60 -5 -100 14
-54 68 -112 104 -112 76 0 161 57 200 134 41 79 19 185 -47 226 -40 25 -78 25
-131 1z m121 -23 c32 -15 65 -75 65 -121 0 -50 -46 -134 -90 -163 -106 -71
-200 -28 -200 90 0 133 124 240 225 194z"/>
<path d="M5828 1545 c-57 -21 -121 -69 -172 -127 -25 -29 -46 -50 -46 -46 0 4
9 32 21 63 25 68 22 97 -11 106 -14 4 -96 7 -182 8 -116 1 -159 -2 -165 -11
-4 -7 -26 -64 -48 -127 -22 -63 -45 -116 -51 -118 -6 -2 -21 42 -34 97 -13 56
-32 114 -42 131 -20 33 -17 33 -236 20 -113 -7 -135 -11 -147 -27 -8 -11 -15
-14 -15 -6 0 7 -14 12 -37 12 -69 0 -508 -71 -521 -84 -8 -8 -22 -74 -33 -150
-10 -76 -26 -177 -34 -225 -27 -156 -43 -301 -60 -531 -17 -247 -22 -277 -35
-264 -18 18 -220 503 -220 528 0 15 43 93 104 188 136 214 230 384 232 420 1
19 -4 32 -13 35 -18 7 -317 -25 -349 -38 -15 -5 -45 -54 -93 -148 -40 -78 -77
-141 -82 -141 -7 0 -9 10 -5 24 3 13 9 68 12 124 9 128 11 127 -164 117 -69
-4 -137 -11 -151 -14 -35 -10 -45 -44 -65 -222 -9 -81 -25 -180 -37 -220 -46
-166 -86 -472 -90 -678 -2 -104 -2 -105 182 -97 81 3 154 8 162 12 22 8 25 19
37 161 7 70 14 130 17 133 6 7 21 -19 43 -80 68 -180 73 -192 95 -202 17 -7
79 -8 207 -1 101 6 334 13 518 16 318 6 336 7 351 26 17 20 59 262 59 334 0
51 -19 57 -176 50 -108 -5 -131 -3 -142 9 -9 11 -10 23 -3 41 9 23 15 25 101
29 61 3 95 9 105 19 19 18 42 299 27 326 -11 19 -16 -16 -29 -202 l-8 -110
-100 -5 c-55 -3 -106 -9 -112 -13 -8 -5 -13 -29 -13 -58 l0 -49 170 0 170 0
-5 -23 c-3 -12 -16 -91 -29 -175 -14 -85 -27 -156 -30 -159 -7 -7 -639 -24
-645 -17 -7 6 28 489 45 628 8 66 28 201 44 300 16 100 33 208 37 241 l8 60
250 37 c138 20 259 37 271 38 20 0 21 -6 28 -166 4 -92 3 -170 -1 -175 -4 -4
-66 -16 -138 -26 l-130 -18 -9 -53 c-5 -29 -7 -54 -5 -56 7 -7 198 20 206 28
4 4 -21 4 -57 0 -104 -12 -115 -11 -118 11 -4 37 13 46 124 62 160 22 154 15
154 180 0 80 4 133 9 127 11 -11 33 -78 144 -424 l85 -265 -23 -245 c-14 -135
-22 -252 -20 -261 10 -30 53 -39 194 -39 98 0 142 4 155 13 16 12 22 50 42
271 l24 258 101 236 c56 130 104 240 108 244 3 4 4 -44 3 -107 -4 -96 -1 -123
17 -177 42 -122 117 -195 248 -239 45 -15 68 -28 75 -44 14 -31 5 -53 -28 -65
-43 -17 -99 7 -170 72 -36 32 -67 58 -70 58 -15 0 62 -82 103 -109 80 -53 152
-53 183 2 25 44 0 76 -85 107 -96 36 -124 52 -167 97 -148 153 -121 461 56
639 114 114 242 134 396 62 87 -41 160 -92 160 -112 0 -8 -23 -77 -50 -153
-28 -76 -53 -144 -55 -152 -4 -9 -17 -3 -45 22 -85 77 -175 100 -206 52 -30
-46 -14 -66 94 -117 176 -83 241 -181 249 -378 4 -90 2 -115 -17 -170 -29 -86
-69 -148 -140 -214 -92 -84 -196 -110 -330 -82 -74 16 -213 77 -257 113 l-22
18 59 185 c33 102 60 187 60 190 -1 22 -29 -52 -76 -199 l-56 -174 19 -26 c28
-38 191 -117 272 -132 160 -28 275 6 375 111 106 111 157 267 137 415 -24 169
-99 275 -246 345 -88 42 -109 59 -103 87 2 13 14 19 40 21 41 4 86 -16 136
-60 60 -52 70 -42 130 122 36 97 51 152 47 169 -10 38 -62 80 -154 125 -75 36
-93 40 -170 43 -57 2 -99 -2 -123 -12z m-706 -173 c22 -90 44 -160 48 -155 4
4 31 80 60 167 l53 159 176 -7 c96 -4 177 -8 178 -10 1 -1 -72 -177 -164 -392
l-166 -389 -23 -250 c-13 -137 -23 -256 -24 -262 0 -10 -40 -13 -165 -13
l-165 0 0 38 c0 20 9 138 21 262 l22 225 -122 376 c-66 206 -121 381 -121 387
0 7 12 13 28 13 15 1 81 5 147 9 198 12 171 31 217 -158z m-1087 -49 c-32 -60
-107 -187 -168 -283 -60 -96 -118 -188 -127 -205 l-18 -30 129 -299 c71 -165
127 -301 125 -303 -2 -2 -91 -6 -198 -10 l-195 -6 -48 134 c-26 74 -57 161
-68 194 -18 53 -21 57 -27 35 -4 -14 -13 -101 -20 -193 -12 -156 -15 -169 -34
-177 -37 -13 -307 -18 -312 -5 -7 17 24 386 41 495 9 52 24 127 34 165 30 111
41 172 60 344 10 89 20 164 22 166 2 2 75 6 162 10 l157 8 0 -34 c0 -19 -9
-105 -20 -193 -12 -87 -19 -160 -18 -162 2 -2 51 91 108 206 58 116 107 210
110 211 3 0 73 8 155 18 83 10 163 19 178 20 l29 1 -57 -107z"/>
</g>
</svg>
